<svg xmlns="http://www.w3.org/2000/svg" viewBox="0 0 500 500"><g id="freepik--background-simple--inject-57"><path d="M437,209.67c-8-30.66-21.31-59.24-35.23-78.85C368.25,83.7,290.45,63,236.7,82.7c-45.8,16.82-61.84,67.68-101.84,92-36.81,22.4-70.21,40.67-83.09,83.38-27.19,90.23,80.35,162.16,160.71,139.27,25.36-7.22,46.8-22.42,73.85-22.51,54.88-.19,74.21,7.34,118.61-22.31C448.69,323.36,451,263.35,437,209.67Z" style="fill:#B9C388"></path><path d="M437,209.67c-8-30.66-21.31-59.24-35.23-78.85C368.25,83.7,290.45,63,236.7,82.7c-45.8,16.82-61.84,67.68-101.84,92-36.81,22.4-70.21,40.67-83.09,83.38-27.19,90.23,80.35,162.16,160.71,139.27,25.36-7.22,46.8-22.42,73.85-22.51,54.88-.19,74.21,7.34,118.61-22.31C448.69,323.36,451,263.35,437,209.67Z" style="fill:#fff;opacity:0.8"></path></g><g id="freepik--Clouds--inject-57"><path d="M330.37,199.49c-4.17-2.27-6.06-.37-7.58-2.27s4.17-6.83-7.21-11.76c0,0-.76-10.62-16.31-11s-11.37,10.62-15.54,13.28-5.31-1.52-9.49,1.14-2.27,8-5.69,8.72-8-3.41-12.13-.76-4.17,4.93-6.07,4.93-5.69-1.52-8,0-4.94,3.41-4.94,3.41h96S334.55,201.77,330.37,199.49Z" style="fill:#B9C388"></path><path d="M300.4,142.32c-5.9-3.22-8.57-.54-10.72-3.22s5.9-9.64-10.18-16.6c0,0-1.07-15-23-15.54s-16.07,15-22,18.75-7.5-2.14-13.39,1.61-3.21,11.25-8,12.32-11.25-4.82-17.14-1.07-5.89,7-8.57,7-8-2.14-11.25,0-7,4.82-7,4.82H304.68S306.29,145.53,300.4,142.32Z" style="fill:#B9C388"></path><path d="M330.37,199.49c-4.17-2.27-6.06-.37-7.58-2.27s4.17-6.83-7.21-11.76c0,0-.76-10.62-16.31-11s-11.37,10.62-15.54,13.28-5.31-1.52-9.49,1.14-2.27,8-5.69,8.72-8-3.41-12.13-.76-4.17,4.93-6.07,4.93-5.69-1.52-8,0-4.94,3.41-4.94,3.41h96S334.55,201.77,330.37,199.49Z" style="fill:#fff;opacity:0.4"></path><path d="M300.4,142.32c-5.9-3.22-8.57-.54-10.72-3.22s5.9-9.64-10.18-16.6c0,0-1.07-15-23-15.54s-16.07,15-22,18.75-7.5-2.14-13.39,1.61-3.21,11.25-8,12.32-11.25-4.82-17.14-1.07-5.89,7-8.57,7-8-2.14-11.25,0-7,4.82-7,4.82H304.68S306.29,145.53,300.4,142.32Z" style="fill:#fff;opacity:0.4"></path></g><g id="freepik--Trees--inject-57"><path d="M377.68,376H428.8c-1-6.25-5-5.15-5.53-14.84-.26-4.88,4.25-10.92,3.86-17.33-.32-5.28-5.53-10.7-5.93-16.74-.37-5.45,4.08-11.5,3.65-17.37-.41-5.56-5.69-10.89-6.16-16.66s3.9-11.74,3.39-17.43-5.89-10.93-6.46-16.54c-.58-5.77,3.63-12,3-17.51-.68-5.86-6.21-10.92-7-16.32-.84-6,3.08-12.44,2.16-17.63-1.12-6.36-7-11-8.28-15.66-2.33-8.74-2-17.17-4.78-17.71-2.92-.59-3.59,7.67-5.81,16.9-1.11,4.64-6.9,9.34-7.85,15.71-.77,5.15,3.32,11.42,2.65,17.41-.6,5.36-6,10.51-6.52,16.34-.49,5.49,3.89,11.53,3.46,17.27-.42,5.57-5.65,10.88-6,16.54S384.8,286,384.5,291.6s-5.45,11.14-5.72,16.65c-.28,5.83,4.32,11.71,4.1,17.12-.25,6-5.31,11.48-5.5,16.72-.23,6.36,4.44,12.22,4.3,17.06-.31,10.51-5.12,8.34-5.3,16.79Z" style="fill:#B9C388"></path><path d="M377.68,376H428.8c-1-6.25-5-5.15-5.53-14.84-.26-4.88,4.25-10.92,3.86-17.33-.32-5.28-5.53-10.7-5.93-16.74-.37-5.45,4.08-11.5,3.65-17.37-.41-5.56-5.69-10.89-6.16-16.66s3.9-11.74,3.39-17.43-5.89-10.93-6.46-16.54c-.58-5.77,3.63-12,3-17.51-.68-5.86-6.21-10.92-7-16.32-.84-6,3.08-12.44,2.16-17.63-1.12-6.36-7-11-8.28-15.66-2.33-8.74-2-17.17-4.78-17.71-2.92-.59-3.59,7.67-5.81,16.9-1.11,4.64-6.9,9.34-7.85,15.71-.77,5.15,3.32,11.42,2.65,17.41-.6,5.36-6,10.51-6.52,16.34-.49,5.49,3.89,11.53,3.46,17.27-.42,5.57-5.65,10.88-6,16.54S384.8,286,384.5,291.6s-5.45,11.14-5.72,16.65c-.28,5.83,4.32,11.71,4.1,17.12-.25,6-5.31,11.48-5.5,16.72-.23,6.36,4.44,12.22,4.3,17.06-.31,10.51-5.12,8.34-5.3,16.79Z" style="fill:#fff;opacity:0.4"></path><line x1="399.63" y1="191.05" x2="399.63" y2="373.63" style="fill:none;stroke:#263238;stroke-miterlimit:10"></line><polyline points="407.61 210.19 399.29 217.38 392.48 208.3" style="fill:none;stroke:#263238;stroke-miterlimit:10"></polyline><polyline points="407.61 241.97 399.29 249.16 392.48 240.08" style="fill:none;stroke:#263238;stroke-miterlimit:10"></polyline><polyline points="407.61 271.86 399.29 279.05 392.48 269.96" style="fill:none;stroke:#263238;stroke-miterlimit:10"></polyline><polyline points="407.61 307.42 399.29 314.61 392.48 305.53" style="fill:none;stroke:#263238;stroke-miterlimit:10"></polyline><polyline points="407.61 343.36 399.29 350.55 392.48 341.47" style="fill:none;stroke:#263238;stroke-miterlimit:10"></polyline><path d="M342.86,376h39.46c-.76-4.83-3.86-4-4.27-11.46-.21-3.76,3.28-8.43,3-13.37-.25-4.08-4.27-8.26-4.58-12.92-.28-4.21,3.15-8.88,2.81-13.41-.31-4.29-4.38-8.41-4.74-12.86s3-9.07,2.61-13.46-4.55-8.43-5-12.77,2.8-9.25,2.31-13.51c-.53-4.52-4.8-8.43-5.38-12.6-.65-4.64,2.38-9.6,1.67-13.61-.87-4.91-5.44-8.46-6.4-12.08-1.79-6.75-1.57-13.26-3.68-13.68-2.26-.45-2.77,5.92-4.49,13.05-.86,3.58-5.32,7.21-6.06,12.12-.59,4,2.57,8.82,2.05,13.44-.47,4.14-4.63,8.12-5,12.62-.38,4.23,3,8.9,2.66,13.33s-4.36,8.4-4.64,12.77,3.21,9,3,13.26-4.21,8.6-4.41,12.85c-.22,4.5,3.33,9,3.16,13.21-.19,4.63-4.1,8.87-4.25,12.91-.17,4.91,3.43,9.44,3.32,13.17-.24,8.12-3.95,6.44-4.09,13Z" style="fill:#B9C388"></path><path d="M342.86,376h39.46c-.76-4.83-3.86-4-4.27-11.46-.21-3.76,3.28-8.43,3-13.37-.25-4.08-4.27-8.26-4.58-12.92-.28-4.21,3.15-8.88,2.81-13.41-.31-4.29-4.38-8.41-4.74-12.86s3-9.07,2.61-13.46-4.55-8.43-5-12.77,2.8-9.25,2.31-13.51c-.53-4.52-4.8-8.43-5.38-12.6-.65-4.64,2.38-9.6,1.67-13.61-.87-4.91-5.44-8.46-6.4-12.08-1.79-6.75-1.57-13.26-3.68-13.68-2.26-.45-2.77,5.92-4.49,13.05-.86,3.58-5.32,7.21-6.06,12.12-.59,4,2.57,8.82,2.05,13.44-.47,4.14-4.63,8.12-5,12.62-.38,4.23,3,8.9,2.66,13.33s-4.36,8.4-4.64,12.77,3.21,9,3,13.26-4.21,8.6-4.41,12.85c-.22,4.5,3.33,9,3.16,13.21-.19,4.63-4.1,8.87-4.25,12.91-.17,4.91,3.43,9.44,3.32,13.17-.24,8.12-3.95,6.44-4.09,13Z" style="fill:#fff;opacity:0.4"></path><line x1="359.8" y1="233.23" x2="359.8" y2="374.17" style="fill:none;stroke:#263238;stroke-miterlimit:10"></line><polyline points="365.96 248.01 359.54 253.56 354.28 246.55" style="fill:none;stroke:#263238;stroke-miterlimit:10"></polyline><polyline points="365.96 272.54 359.54 278.09 354.28 271.08" style="fill:none;stroke:#263238;stroke-miterlimit:10"></polyline><polyline points="365.96 295.61 359.54 301.16 354.28 294.15" style="fill:none;stroke:#263238;stroke-miterlimit:10"></polyline><polyline points="365.96 323.06 359.54 328.61 354.28 321.6" style="fill:none;stroke:#263238;stroke-miterlimit:10"></polyline><polyline points="365.96 350.8 359.54 356.35 354.28 349.34" style="fill:none;stroke:#263238;stroke-miterlimit:10"></polyline><path d="M100.69,355.62h39.46c-.75-4.82-3.85-4-4.26-11.45-.21-3.77,3.27-8.43,3-13.38-.25-4.08-4.26-8.26-4.58-12.92-.28-4.21,3.15-8.88,2.82-13.41-.32-4.29-4.39-8.4-4.75-12.86s3-9.06,2.61-13.46-4.54-8.43-5-12.76,2.8-9.25,2.3-13.52c-.53-4.52-4.8-8.43-5.38-12.6-.64-4.64,2.38-9.6,1.68-13.6-.87-4.91-5.44-8.47-6.4-12.09-1.79-6.75-1.57-13.25-3.69-13.68S115.72,205.82,114,213c-.86,3.58-5.33,7.2-6.06,12.12-.6,4,2.56,8.81,2,13.44-.46,4.14-4.62,8.12-5,12.62-.38,4.23,3,8.9,2.67,13.32s-4.36,8.4-4.64,12.77,3.2,8.95,3,13.26-4.21,8.6-4.41,12.86c-.21,4.49,3.34,9,3.16,13.21-.19,4.62-4.1,8.86-4.24,12.9-.18,4.91,3.43,9.44,3.32,13.18-.24,8.11-4,6.43-4.09,13Z" style="fill:#B9C388"></path><path d="M100.69,355.62h39.46c-.75-4.82-3.85-4-4.26-11.45-.21-3.77,3.27-8.43,3-13.38-.25-4.08-4.26-8.26-4.58-12.92-.28-4.21,3.15-8.88,2.82-13.41-.32-4.29-4.39-8.4-4.75-12.86s3-9.06,2.61-13.46-4.54-8.43-5-12.76,2.8-9.25,2.3-13.52c-.53-4.52-4.8-8.43-5.38-12.6-.64-4.64,2.38-9.6,1.68-13.6-.87-4.91-5.44-8.47-6.4-12.09-1.79-6.75-1.57-13.25-3.69-13.68S115.72,205.82,114,213c-.86,3.58-5.33,7.2-6.06,12.12-.6,4,2.56,8.81,2,13.44-.46,4.14-4.62,8.12-5,12.62-.38,4.23,3,8.9,2.67,13.32s-4.36,8.4-4.64,12.77,3.2,8.95,3,13.26-4.21,8.6-4.41,12.86c-.21,4.49,3.34,9,3.16,13.21-.19,4.62-4.1,8.86-4.24,12.9-.18,4.91,3.43,9.44,3.32,13.18-.24,8.11-4,6.43-4.09,13Z" style="fill:#fff;opacity:0.4"></path><line x1="117.63" y1="212.87" x2="117.63" y2="353.8" style="fill:none;stroke:#263238;stroke-miterlimit:10"></line><polyline points="123.79 227.64 117.37 233.19 112.11 226.18" style="fill:none;stroke:#263238;stroke-miterlimit:10"></polyline><polyline points="123.79 252.17 117.37 257.72 112.11 250.71" style="fill:none;stroke:#263238;stroke-miterlimit:10"></polyline><polyline points="123.79 275.24 117.37 280.79 112.11 273.78" style="fill:none;stroke:#263238;stroke-miterlimit:10"></polyline><polyline points="123.79 302.69 117.37 308.24 112.11 301.23" style="fill:none;stroke:#263238;stroke-miterlimit:10"></polyline><polyline points="123.79 330.44 117.37 335.99 112.11 328.98" style="fill:none;stroke:#263238;stroke-miterlimit:10"></polyline></g><g id="freepik--drone-3--inject-57"><path d="M402.06,133.55l-36-3.85v-1.26l36.31-4.25Z" style="fill:#fff;stroke:#263238;stroke-linecap:round;stroke-linejoin:round"></path><rect x="361.24" y="126.26" width="6.84" height="9.12" style="fill:#fff;stroke:#263238;stroke-linecap:round;stroke-linejoin:round"></rect><path d="M365.62,143l2.42-7.51h-6.76L363.7,143A1,1,0,0,0,365.62,143Z" style="fill:#263238;stroke:#263238;stroke-linecap:round;stroke-linejoin:round"></path><path d="M378.35,125.59c0,.67-6.17,1.22-13.78,1.22s-13.77-.55-13.77-1.22,6.17-1.23,13.77-1.23S378.35,124.91,378.35,125.59Z" style="fill:none;stroke:#263238;stroke-linecap:round;stroke-linejoin:round"></path><path d="M396.76,133.55l36-3.85v-1.26l-36.31-4.25Z" style="fill:#fff;stroke:#263238;stroke-linecap:round;stroke-linejoin:round"></path><rect x="430.74" y="126.26" width="6.84" height="9.12" transform="translate(868.31 261.64) rotate(180)" style="fill:#fff;stroke:#263238;stroke-linecap:round;stroke-linejoin:round"></rect><path d="M433.2,143l-2.43-7.51h6.77L435.11,143A1,1,0,0,1,433.2,143Z" style="fill:#263238;stroke:#263238;stroke-linecap:round;stroke-linejoin:round"></path><path d="M420.47,125.59c0,.67,6.16,1.22,13.77,1.22s13.78-.55,13.78-1.22-6.17-1.23-13.78-1.23S420.47,124.91,420.47,125.59Z" style="fill:none;stroke:#263238;stroke-linecap:round;stroke-linejoin:round"></path><polygon points="395.65 125.82 359.34 133.96 359.34 135.21 395.34 135.21 395.65 125.82" style="fill:#fff;stroke:#263238;stroke-linecap:round;stroke-linejoin:round"></polygon><polygon points="406.32 125.82 442.63 133.96 442.63 135.21 406.63 135.21 406.32 125.82" style="fill:#fff;stroke:#263238;stroke-linecap:round;stroke-linejoin:round"></polygon><rect x="438.64" y="126.44" width="8.45" height="11.27" transform="translate(885.73 264.16) rotate(180)" style="fill:#fff;stroke:#263238;stroke-linecap:round;stroke-linejoin:round"></rect><path d="M441.91,147.83l-3.23-10h8.37l-3.23,10A1,1,0,0,1,441.91,147.83Z" style="fill:#263238;stroke:#263238;stroke-linecap:round;stroke-linejoin:round"></path><ellipse cx="442.97" cy="126.54" rx="17.03" ry="1.51" style="fill:none;stroke:#263238;stroke-linecap:round;stroke-linejoin:round"></ellipse><path d="M406.92,136.89H395.34V124.1a5.8,5.8,0,0,1,5.79-5.8h0a5.8,5.8,0,0,1,5.79,5.8Z" style="fill:#fff;stroke:#263238;stroke-linecap:round;stroke-linejoin:round"></path><path d="M395.36,123.63h11.55a5.64,5.64,0,0,0-5.62-5.33H401A5.63,5.63,0,0,0,395.36,123.63Z" style="fill:#fff;stroke:#263238;stroke-linecap:round;stroke-linejoin:round"></path><path d="M404.73,129.89a3.44,3.44,0,1,0-3.44,3.44A3.45,3.45,0,0,0,404.73,129.89Z" style="fill:#263238;stroke:#263238;stroke-linecap:round;stroke-linejoin:round"></path><rect x="351.87" y="126.44" width="8.45" height="11.27" style="fill:#fff;stroke:#263238;stroke-linecap:round;stroke-linejoin:round"></rect><path d="M357.05,147.83l3.23-10h-8.37l3.23,10A1,1,0,0,0,357.05,147.83Z" style="fill:#263238;stroke:#263238;stroke-linecap:round;stroke-linejoin:round"></path><ellipse cx="355.99" cy="126.54" rx="17.03" ry="1.51" style="fill:none;stroke:#263238;stroke-linecap:round;stroke-linejoin:round"></ellipse></g><g id="freepik--drone-2--inject-57"><rect x="285.67" y="164.03" width="8.45" height="8.49" style="fill:#fff;stroke:#263238;stroke-linecap:round;stroke-linejoin:round"></rect><ellipse cx="289.79" cy="163.19" rx="17.03" ry="1.51" style="fill:none;stroke:#263238;stroke-linecap:round;stroke-linejoin:round"></ellipse><rect x="361.43" y="164.03" width="8.45" height="8.49" style="fill:#fff;stroke:#263238;stroke-linecap:round;stroke-linejoin:round"></rect><ellipse cx="365.55" cy="163.19" rx="17.03" ry="1.51" style="fill:none;stroke:#263238;stroke-linecap:round;stroke-linejoin:round"></ellipse><path d="M316.32,204.59h-5.56a2.31,2.31,0,0,1-2.32-2.31V175.63a2.32,2.32,0,0,1,4.64,0V200H315V177.72c0-1.28,0-2.32,1.29-2.32a2.32,2.32,0,0,1,2.32,2.32v24.56A2.31,2.31,0,0,1,316.32,204.59Z" style="fill:#fff;stroke:#263238;stroke-linecap:round;stroke-linejoin:round"></path><path d="M342,204.59h5.56a2.3,2.3,0,0,0,2.31-2.31V175.63a2.32,2.32,0,0,0-4.63,0V200H343V177.72c0-1.28.34-2.32-.94-2.32a2.32,2.32,0,0,0-2.32,2.32v24.56A2.31,2.31,0,0,0,342,204.59Z" style="fill:#fff;stroke:#263238;stroke-linecap:round;stroke-linejoin:round"></path><rect x="325.59" y="183.28" width="6.02" height="8.11" style="fill:#fff;stroke:#263238;stroke-linecap:round;stroke-linejoin:round"></rect><rect x="323.04" y="189.53" width="11.12" height="11.82" rx="2.87" style="fill:#fff;stroke:#263238;stroke-linecap:round;stroke-linejoin:round"></rect><path d="M365.4,169.05a245.08,245.08,0,0,0-36.58-3.36h-.64a245.08,245.08,0,0,0-36.58,3.36c-1.54.26-7.27.16-6.77,3.06.36,2.11,4.24,2.16,5.78,2.28,7.36.55,14.41,1.21,21.11,4.64,5.31,2.72,10.22,7.9,16.4,8.42v.06l.38,0,.38,0v-.06c6.19-.52,11.1-5.7,16.4-8.42,6.7-3.43,13.75-4.09,21.11-4.64,1.54-.12,5.42-.17,5.79-2.28C372.68,169.21,366.94,169.31,365.4,169.05Z" style="fill:#fff;stroke:#263238;stroke-linecap:round;stroke-linejoin:round"></path><path d="M371.54,173.46c-1.47-1.21-5-1.2-6.14-1.39a243.78,243.78,0,0,0-36.58-3.37h-.64a243.78,243.78,0,0,0-36.58,3.37c-1,.17-3.85.18-5.52,1" style="fill:none;stroke:#263238;stroke-linecap:round;stroke-linejoin:round"></path><path d="M332.19,195.44A3.59,3.59,0,1,0,328.6,199,3.59,3.59,0,0,0,332.19,195.44Z" style="fill:#263238;stroke:#263238;stroke-linecap:round;stroke-linejoin:round"></path><polyline points="313.08 199.96 313.08 201.34 314.25 201.34" style="fill:none;stroke:#263238;stroke-linecap:round;stroke-linejoin:round"></polyline><polyline points="345.28 199.96 345.28 201.49 343.91 201.49" style="fill:none;stroke:#263238;stroke-linecap:round;stroke-linejoin:round"></polyline></g><g id="freepik--drone-1--inject-57"><polygon points="268.33 94.98 292 97.5 292 98.21 268.53 100.32 268.33 94.98" style="fill:#fff;stroke:#263238;stroke-linecap:round;stroke-linejoin:round"></polygon><polygon points="288.82 95.27 292.3 95.27 292.3 97.16 292.3 100.63 292.3 104.26 291.19 104.26 291.19 100.63 288.82 100.63 288.82 95.27" style="fill:#fff;stroke:#263238;stroke-linecap:round;stroke-linejoin:round"></polygon><path d="M279.61,95.39c0,.54,5,1,11.1,1s11.1-.44,11.1-1-5-1-11.1-1S279.61,94.84,279.61,95.39Z" style="fill:none;stroke:#263238;stroke-linecap:round;stroke-linejoin:round"></path><polygon points="245.4 94.98 206.23 97.5 206.23 98.21 245.19 100.32 245.4 94.98" style="fill:#fff;stroke:#263238;stroke-linecap:round;stroke-linejoin:round"></polygon><polygon points="209.41 95.27 205.94 95.27 205.94 97.16 205.94 100.63 205.94 104.26 207.04 104.26 207.04 100.63 209.41 100.63 209.41 95.27" style="fill:#fff;stroke:#263238;stroke-linecap:round;stroke-linejoin:round"></polygon><path d="M218.62,95.39c0,.54-5,1-11.1,1s-11.1-.44-11.1-1,5-1,11.1-1S218.62,94.84,218.62,95.39Z" style="fill:none;stroke:#263238;stroke-linecap:round;stroke-linejoin:round"></path><rect x="241.24" y="92.14" width="25.22" height="9.16" rx="4.16" style="fill:#fff;stroke:#263238;stroke-linecap:round;stroke-linejoin:round"></rect><rect x="245.84" y="92.14" width="25.22" height="9.16" rx="4.16" style="fill:#fff;stroke:#263238;stroke-linecap:round;stroke-linejoin:round"></rect><polygon points="251.45 86.81 214.13 90.67 214.13 91.77 251.13 95 251.45 86.81" style="fill:#fff;stroke:#263238;stroke-linecap:round;stroke-linejoin:round"></polygon><polygon points="219.01 87.25 213.68 87.25 213.68 90.16 213.68 95.48 213.68 101.05 215.38 101.05 215.38 95.48 219.01 95.48 219.01 87.25" style="fill:#fff;stroke:#263238;stroke-linecap:round;stroke-linejoin:round"></polygon><path d="M233.14,87.44c0,.84-7.63,1.51-17,1.51s-17-.67-17-1.51,7.62-1.51,17-1.51S233.14,86.61,233.14,87.44Z" style="fill:none;stroke:#263238;stroke-linecap:round;stroke-linejoin:round"></path><polygon points="272.93 86.81 309.24 90.67 309.24 91.77 273.24 95 272.93 86.81" style="fill:#fff;stroke:#263238;stroke-linecap:round;stroke-linejoin:round"></polygon><polygon points="304.36 87.25 309.69 87.25 309.69 90.16 309.69 95.48 309.69 101.05 307.99 101.05 307.99 95.48 304.36 95.48 304.36 87.25" style="fill:#fff;stroke:#263238;stroke-linecap:round;stroke-linejoin:round"></polygon><path d="M290.23,87.44c0,.84,7.63,1.51,17,1.51s17-.67,17-1.51-7.62-1.51-17-1.51S290.23,86.61,290.23,87.44Z" style="fill:none;stroke:#263238;stroke-linecap:round;stroke-linejoin:round"></path><rect x="246.81" y="86.08" width="25.22" height="9.16" rx="4.16" style="fill:#fff;stroke:#263238;stroke-linecap:round;stroke-linejoin:round"></rect><rect x="251.41" y="86.08" width="25.22" height="9.16" rx="4.16" style="fill:#fff;stroke:#263238;stroke-linecap:round;stroke-linejoin:round"></rect><path d="M258,89.91a1.21,1.21,0,1,0-1.21,1.21A1.21,1.21,0,0,0,258,89.91Z" style="fill:#fff;stroke:#263238;stroke-linecap:round;stroke-linejoin:round"></path><path d="M273.49,89.91a1.22,1.22,0,1,0-1.22,1.21A1.22,1.22,0,0,0,273.49,89.91Z" style="fill:#fff;stroke:#263238;stroke-linecap:round;stroke-linejoin:round"></path><rect x="257.27" y="95.64" width="8.82" height="9.37" rx="2.87" style="fill:#fff;stroke:#263238;stroke-linecap:round;stroke-linejoin:round"></rect><path d="M264.53,100.32a2.85,2.85,0,1,0-2.85,2.85A2.85,2.85,0,0,0,264.53,100.32Z" style="fill:#263238;stroke:#263238;stroke-linecap:round;stroke-linejoin:round"></path></g><g id="freepik--character-3--inject-57"><ellipse cx="219.67" cy="390.33" rx="35.33" ry="11.33" style="fill:#B9C388"></ellipse><ellipse cx="219.67" cy="390.33" rx="35.33" ry="11.33" style="fill:#fff;opacity:0.6000000000000001"></ellipse><path d="M201.83,278.43s-3.71,31.28-4.64,36.84-3.47,42.4-2.55,48.42,2.09,20.16,2.09,20.16,2.09.23,3.48.23h1.39s9-45.41,10.19-50.51,7.18-28.5,7.18-28.5,6.26,50.51,6.95,55.61,3,18.07,3,18.07a4.1,4.1,0,0,0,1.63.23,11.26,11.26,0,0,0,3.24-.92l2.09-51.67.23-47.73Z" style="fill:#263238;stroke:#263238;stroke-linecap:round;stroke-linejoin:round"></path><path d="M238.05,225.55A153,153,0,0,1,244.16,241c2.09,6.75,8.36,17.52,7.56,20.41s-10,13.83-10,13.83l-3.54-2.73,3.54-11.9-4.66-9S236.76,230.38,238.05,225.55Z" style="fill:#B9C388;stroke:#263238;stroke-linecap:round;stroke-linejoin:round"></path><path d="M200.76,219.29s-8.36,5.46-9.33,6.43.32,11.89,2.41,18.32,6.43,26,6.75,28.78.49,6.43,1.77,6.75S216.83,282,222.94,282s11.9-1.61,12.86-2.57,1.77-41.8,2.41-43.89,1.13-8.2-.16-10-9.32-6.43-12.54-6.43S211,214.14,200.76,219.29Z" style="fill:#B9C388;stroke:#263238;stroke-linecap:round;stroke-linejoin:round"></path><path d="M213.78,209.8s-4.67,2.89-6.43,3-4.5.49-6.11,3.06-2.9,3.54-1.77,4.34,6.11,4.18,9.64,4.82,9.33,4,10.13,4.83,2.09,1.76,3.22.48,4.82-10.45,5.3-10.61.16-2.57-.8-4-5.31-6.11-7.56-6.27A33.52,33.52,0,0,0,213.78,209.8Z" style="fill:#B9C388;stroke:#263238;stroke-linecap:round;stroke-linejoin:round"></path><path d="M207.35,212.85s-2.62,2-.55,4.44a13.33,13.33,0,0,0,5.52,3.45" style="fill:none;stroke:#263238;stroke-linecap:round;stroke-linejoin:round"></path><path d="M213.29,202.73s-.16,9.16-.16,11.89a13.27,13.27,0,0,0,3.06,8.2c1.93,2.25,3.05,5.47,4.34,4.5s2.25-5.3,2.25-7.71-.8-4.83-.64-6.27.48-5,.48-5S217,202.49,213.29,202.73Z" style="fill:#fff;stroke:#263238;stroke-linecap:round;stroke-linejoin:round"></path><path d="M207.91,197s-8.25,5.8-9.81,6.91,4.68,1.79,8.7,1.12,9.81-6.25,10.71-6.47S215.28,193,207.91,197Z" style="fill:#fff;stroke:#263238;stroke-linecap:round;stroke-linejoin:round"></path><path d="M219.29,190.73s.45,7.14-1.78,7.81-4.27,2.42-7,1.66-2.78-3.22-2.33-5.9S218,190.73,219.29,190.73Z" style="fill:#fff;stroke:#263238;stroke-linecap:round;stroke-linejoin:round"></path><path d="M212.26,203.79s1.67,3.46,3.33,4.57,9.82,3.32,11.48,2.49,2.35-8.3,2.35-13-1.38-10.65-2.21-10.51a5.84,5.84,0,0,1-3.18.27c-2.22-.27-7.75-1.93-9,.7s1.66,4.29,1.11,5.81-2.35,2.49-2.35,3.73-3.32,2.36-3.32,2.36Z" style="fill:#fff;stroke:#263238;stroke-linecap:round;stroke-linejoin:round"></path><polygon points="216.42 194.8 208.36 197.65 210.05 199.09 216.69 198.95 216.42 194.8" style="fill:#fff;stroke:#263238;stroke-linecap:round;stroke-linejoin:round"></polygon><path d="M213.51,200.89s-1.52-3-3.6-2.77-1.24,3-.27,4.84,3.73,1.25,3.73,1.25" style="fill:#fff;stroke:#263238;stroke-linecap:round;stroke-linejoin:round"></path><path d="M228,193.42s-7.89-1.25-11.35.41-2.07,5.54.69,5.81,9.41.14,11.35-.55S231.08,194.25,228,193.42Z" style="fill:#fff;stroke:#263238;stroke-linecap:round;stroke-linejoin:round"></path><path d="M230.39,192.72s-7.89-1.24-11.35.42-2.07,5.53.7,5.81,9.41.14,11.34-.55S233.44,193.55,230.39,192.72Z" style="fill:#fff;stroke:#263238;stroke-linecap:round;stroke-linejoin:round"></path><path d="M227.21,199.37a4.73,4.73,0,0,1,.69,2.07c0,1-1.11,1.38-3.32,1.38" style="fill:none;stroke:#263238;stroke-linecap:round;stroke-linejoin:round"></path><path d="M207.91,197s4.69-5.8,20.75-4.91c0,0-.67-3.79-1.34-6.91s-3.57-4-8.7-3.35-8.48,1.11-10.71,4S207.91,197,207.91,197Z" style="fill:#263238;stroke:#263238;stroke-linecap:round;stroke-linejoin:round"></path><path d="M214.74,240.32h0a.46.46,0,0,1-.43-.49c.31-4.26-.47-14-.48-14.08a.47.47,0,0,1,.42-.5.46.46,0,0,1,.5.43c0,.4.8,9.89.48,14.22A.45.45,0,0,1,214.74,240.32Z" style="fill:#fff;stroke:#263238;stroke-linecap:round;stroke-linejoin:round;stroke-width:0.5px"></path><path d="M225.35,238.72a.47.47,0,0,1-.46-.47,89.27,89.27,0,0,0-1.44-12.61.46.46,0,0,1,.91-.17,90.71,90.71,0,0,1,1.45,12.78A.46.46,0,0,1,225.35,238.72Z" style="fill:#fff;stroke:#263238;stroke-linecap:round;stroke-linejoin:round;stroke-width:0.5px"></path><path d="M237.57,272.17s-4.5-2.73-5.47-2.73-.48,2.41,1.13,4a3.48,3.48,0,0,1,.16,4.82c-1,.81-7.88,3.06-6.59,3.7s7.23,1.45,9,1,5.14-6.75,5.95-7.71S238.37,271.53,237.57,272.17Z" style="fill:#fff;stroke:#263238;stroke-linecap:round;stroke-linejoin:round"></path><rect x="220.21" y="275.55" width="15.91" height="5.79" transform="translate(-24.55 22.08) rotate(-5.26)" style="fill:#fff;stroke:#263238;stroke-linecap:round;stroke-linejoin:round"></rect><polygon points="219.97 276.29 212.97 275.39 213.29 279.57 220.51 282.05 219.97 276.29" style="fill:#fff;stroke:#263238;stroke-linecap:round;stroke-linejoin:round"></polygon><polygon points="212.97 275.39 226.32 273.94 235.82 274.83 219.97 276.29 212.97 275.39" style="fill:#fff;stroke:#263238;stroke-linecap:round;stroke-linejoin:round"></polygon><path d="M209.6,273.94s3.37-1.12,4.82-1.77,3.86,1.77,4.34,2.09,2.32,1.83,1.77,1.93a19.25,19.25,0,0,1-3.7-.16,19.78,19.78,0,0,1-2.25-.48s.64,3.86,1.45,4.66,5.42,1.11,4.48,1.84-4.8,1.05-6.73,1.38-6.11-3.22-6.75-3.7-1.93-1.29-1.93-1.29l2.09-4.5Z" style="fill:#fff;stroke:#263238;stroke-linecap:round;stroke-linejoin:round"></path><path d="M234.68,271.53c0,.8-2.58,2.57-3.54,2.89a3.87,3.87,0,0,1-2.41-.16c-.65-.16,3.37-4.82,3.37-4.82s1-.48,2.25,1.13" style="fill:#fff;stroke:#263238;stroke-linecap:round;stroke-linejoin:round"></path><path d="M191.43,225.72s-2.57.64-3.7,4.82-9,34.72-7.87,36.49,25.24,11.41,25.24,11.41l2.09-4.5L190.63,260.6s7.71-17.52,8.52-21.86" style="fill:#B9C388;stroke:#263238;stroke-linecap:round;stroke-linejoin:round"></path><line x1="218.97" y1="305.07" x2="222.22" y2="295.57" style="fill:none;stroke:#fff;stroke-linecap:round;stroke-linejoin:round"></line><path d="M196.73,383.85s-4.87,8.8-4.87,11.35,3,4.4,5.8.7,3.94-11.82,3.94-11.82Z" style="fill:#fff;stroke:#263238;stroke-linecap:round;stroke-linejoin:round"></path><path d="M233.8,378.06s10.66,4.4,10.66,6.48-6.72,1.39-10.43.47-5.33-1.86-5.1-6.26A16.6,16.6,0,0,0,233.8,378.06Z" style="fill:#fff;stroke:#263238;stroke-linecap:round;stroke-linejoin:round"></path></g><g id="freepik--character-2--inject-57"><ellipse cx="153.67" cy="401.67" rx="35.33" ry="11.33" style="fill:#B9C388"></ellipse><ellipse cx="153.67" cy="401.67" rx="35.33" ry="11.33" style="fill:#fff;opacity:0.6000000000000001"></ellipse><path d="M170.69,222.22s3.24.46,6.49,7.11,9,30.45,9,34.47a10.17,10.17,0,0,1-6.49,9.27c-3.86,1.55-6.18-1.39-7.11-3.86s-1.24-24.89-1.24-24.89Z" style="fill:#fff;stroke:#263238;stroke-linecap:round;stroke-linejoin:round"></path><path d="M182.45,245.88c-1.75-6.75-3.77-13.48-5.27-16.55-3.25-6.65-6.49-7.11-6.49-7.11l.61,22.1s0,1.8.09,4.43C172.78,248,177.66,245.68,182.45,245.88Z" style="fill:#fff;stroke:#263238;stroke-linecap:round;stroke-linejoin:round"></path><path d="M133.45,343s-.89,10.72-.89,15-2.45,13.62-2.45,19.87.22,17.86.22,17.86-.89,8.48-.67,11.16,4.24,5.13,6.25,1.11-1.34-11.38-.67-14.95,6-23,7.37-28.13,4-20.31,4-20.31Z" style="fill:#fff;stroke:#263238;stroke-linecap:round;stroke-linejoin:round"></path><path d="M135.91,407.92c1.6-3.2-.2-8.53-.66-12.37a5.06,5.06,0,0,0-2.24-1.69c-1.32-.29-2.25,1.23-2.74,2.32a96.33,96.33,0,0,0-.61,10.63C129.88,409.49,133.9,411.94,135.91,407.92Z" style="fill:#B9C388;stroke:#263238;stroke-linecap:round;stroke-linejoin:round"></path><path d="M160.91,341.85a94.57,94.57,0,0,1,0,12.72,105.89,105.89,0,0,0,1.34,22.33c.89,4,3.8,19.19,3.8,19.19a8,8,0,0,0,2.68,1.12c1.33.22,3.12-.22,4.24.67s8.48,1.79,8.7.45.67-2.24-5.8-5.59c-3.37-1.74-5.58-2.9-5.58-2.9s3.12-27.45,3.12-35.94V339.39Z" style="fill:#fff;stroke:#263238;stroke-linecap:round;stroke-linejoin:round"></path><path d="M175.87,392.74c-3.37-1.74-5.58-2.9-5.58-2.9a4.19,4.19,0,0,0,.44,3.35l-5.59-1.82c.53,2.73.91,4.72.91,4.72a8,8,0,0,0,2.68,1.12c1.33.22,3.12-.22,4.24.67s8.48,1.79,8.7.45S182.34,396.09,175.87,392.74Z" style="fill:#B9C388;stroke:#263238;stroke-linecap:round;stroke-linejoin:round"></path><path d="M172.7,289.76s0,.28.06.78c.46,5.29,3.11,35.85,3.11,39.92,0,4.47.22,9.6.22,11.16s-9.82,1.79-13.84,2.46a42.39,42.39,0,0,1-7.14.67c-.67,0-1.56-17.86-1.56-17.86s-3.13,17.64-3.13,18.31,1.12.89-7.81.89a42,42,0,0,1-16.08-3.35l5.59-45.09,1.11-10.49,38.84-.9Z" style="fill:#263238;stroke:#263238;stroke-linecap:round;stroke-linejoin:round"></path><path d="M156.89,296.31l-.67,15.4h0a3.78,3.78,0,0,0,2.86-3.42l.72-11.54" style="fill:none;stroke:#fff;stroke-linecap:round;stroke-linejoin:round"></path><line x1="153.55" y1="326.89" x2="156" y2="314.17" style="fill:none;stroke:#fff;stroke-linecap:round;stroke-linejoin:round"></line><polyline points="130.11 318.63 145.73 320.86 145.29 326.89 130.55 324.21" style="fill:none;stroke:#fff;stroke-linecap:round;stroke-linejoin:round"></polyline><path d="M145.29,326.89l-1.23,11.72a3.07,3.07,0,0,1-3.55,2.72l-10.63-1.71" style="fill:none;stroke:#fff;stroke-linecap:round;stroke-linejoin:round"></path><polyline points="175.42 319.08 166.05 320.86 166.94 326 173.64 325.11" style="fill:none;stroke:#fff;stroke-linecap:round;stroke-linejoin:round"></polyline><path d="M166.94,326l1.32,11.55a2,2,0,0,0,2.3,1.76l4-.59" style="fill:none;stroke:#fff;stroke-linecap:round;stroke-linejoin:round"></path><path d="M142.16,293.63s-1.79,10.27-9.38,11.61" style="fill:none;stroke:#fff;stroke-linecap:round;stroke-linejoin:round"></path><path d="M149.36,215.11S135.6,219.28,132,221s-1.54,24.27-.31,36.32,1.4,33.39,1.4,33.39,5.87,2.32,16.23,2.63,23.34-3.56,23.34-3.56-.16-47.6-.16-54.4,1.7-8.66-1.85-13.14S158,214.18,149.36,215.11Z" style="fill:#fff;stroke:#263238;stroke-linecap:round;stroke-linejoin:round"></path><line x1="133.81" y1="249.16" x2="138.63" y2="239.54" style="fill:none;stroke:#263238;stroke-linecap:round;stroke-linejoin:round"></line><path d="M159.87,226.85c1.55-2.62.89-8.26.51-10.71a29,29,0,0,0-11-1s-1.91.57-4.49,1.39c-.28,2.52-.6,8.78,2.94,11.59C152.29,231.65,157.86,230.25,159.87,226.85Z" style="fill:#263238;stroke:#263238;stroke-linecap:round;stroke-linejoin:round"></path><path d="M147.81,202.59s.15,10.2.15,14.06-.46,9.43,4.49,11,6.33-3.56,6.33-7.27-.15-8.81-.15-8.81-6.18-7.57-7.42-8A31.74,31.74,0,0,0,147.81,202.59Z" style="fill:#fff;stroke:#263238;stroke-linecap:round;stroke-linejoin:round"></path><path d="M146,202.12s-3.1-11.74-3.1-14.37,8.2-6.34,13.76-6.49,9.58,1.54,10.82,4.17-.15,4.17-1.55,4.79-11.43-1.85-11.74,0,1.54,6.18.31,7.73-6,5.87-7.27,5.87S146,202.12,146,202.12Z" style="fill:#263238;stroke:#263238;stroke-linecap:round;stroke-linejoin:round"></path><path d="M148.27,205.52s1.86,3.87,3.71,5.1,11,3.71,12.83,2.79,2.63-9.28,2.63-14.53S165.89,187,165,187.13a6.6,6.6,0,0,1-3.56.31c-2.47-.31-8.65-2.17-10,.77s1.85,4.79,1.23,6.49-2.63,2.79-2.63,4.18-3.71,2.62-3.71,2.62Z" style="fill:#fff;stroke:#263238;stroke-linecap:round;stroke-linejoin:round"></path><polygon points="152.91 195.48 145.18 197.95 145.8 200.27 153.22 200.11 152.91 195.48" style="fill:#fff;stroke:#263238;stroke-linecap:round;stroke-linejoin:round"></polygon><path d="M149.66,202.28s-1.7-3.4-4-3.09-1.4,3.4-.31,5.41,4.17,1.39,4.17,1.39" style="fill:#fff;stroke:#263238;stroke-linecap:round;stroke-linejoin:round"></path><path d="M165.89,193.93s-8.81-1.39-12.67.46-2.32,6.19.77,6.5,10.51.15,12.68-.62S169.3,194.86,165.89,193.93Z" style="fill:#fff;stroke:#263238;stroke-linecap:round;stroke-linejoin:round"></path><path d="M168.52,193.16s-8.81-1.39-12.67.46-2.32,6.18.77,6.49,10.51.16,12.68-.62S171.92,194.08,168.52,193.16Z" style="fill:#fff;stroke:#263238;stroke-linecap:round;stroke-linejoin:round"></path><path d="M165,200.58a5.3,5.3,0,0,1,.77,2.32c0,1.08-1.24,1.54-3.71,1.54" style="fill:none;stroke:#263238;stroke-linecap:round;stroke-linejoin:round"></path><polygon points="164.9 264.96 171.11 257.91 183.69 257.87 177.32 265.3 164.9 264.96" style="fill:#263238;stroke:#263238;stroke-linecap:round;stroke-linejoin:round"></polygon><polygon points="171.11 257.91 168.76 254.38 162.21 262.44 164.9 264.96 171.11 257.91" style="fill:#fff;stroke:#263238;stroke-linecap:round;stroke-linejoin:round"></polygon><polygon points="168.76 254.38 182.02 254.55 183.69 257.87 171.11 257.91 168.76 254.38" style="fill:#fff;stroke:#263238;stroke-linecap:round;stroke-linejoin:round"></polygon><path d="M183.37,259.59s.67,2.68-.34,4.2-1,3.35-3,3.35-6.72-1.17-6-2.18l.68-1s.16-.33,1.34-.84-.34-1.51,2-2.51A15.91,15.91,0,0,1,183.37,259.59Z" style="fill:#fff;stroke:#263238;stroke-linecap:round;stroke-linejoin:round"></path><path d="M177,256.46a.89.89,0,0,1-.59-1.56l6-4.65a.44.44,0,0,1,.63,0,.45.45,0,0,1,0,.63l-5.37,5.32A.88.88,0,0,1,177,256.46Z" style="fill:#263238"></path><path d="M132,221s-7.26,3.25-9.42,8.81,1.54,48.38,2.62,50.39,5,.93,9.74,0,21.49-10.05,21.49-10.05,9.12-.31,11-1.23,3.25-2.94,4.17-3.4,2.94-2.94.93-2.94-8.65-.16-9.43,0a4.88,4.88,0,0,1-1.85-.16l3.55-2.16s1.24-2.32.62-2.63-1.54.93-2,1.24-4,.62-4.94,1.24-2.79,4.63-3.25,4.94-8.5,3.4-13.29,2.94a30,30,0,0,0-7.89.15s-.61-22.87-.15-28.44" style="fill:#fff;stroke:#263238;stroke-linecap:round;stroke-linejoin:round"></path><path d="M134.05,268.12s-3,1.68-3.67,4.08" style="fill:none;stroke:#263238;stroke-linecap:round;stroke-linejoin:round"></path><path d="M183.67,262.56a4.23,4.23,0,0,1,1.39,3.25" style="fill:none;stroke:#263238;stroke-linecap:round;stroke-linejoin:round"></path><path d="M135,280.18c4.86-.94,21.49-10.05,21.49-10.05s9.12-.31,11-1.23,3.25-2.94,4.17-3.4,2.94-2.94.93-2.94-8.65-.16-9.43,0a4.88,4.88,0,0,1-1.85-.16l3.55-2.16s1.24-2.32.62-2.63-1.54.93-2,1.24-4,.62-4.94,1.24-2.79,4.63-3.25,4.94-8.5,3.4-13.29,2.94a30,30,0,0,0-7.89.15s-.17-6.56-.27-13.51a34.55,34.55,0,0,0-11,2.06c.79,11.52,2,22.52,2.5,23.51C126.32,282.19,130.19,281.11,135,280.18Z" style="fill:none;stroke:#263238;stroke-linecap:round;stroke-linejoin:round"></path></g><g id="freepik--character-1--inject-57"><ellipse cx="80.33" cy="416.33" rx="35.33" ry="11.33" style="fill:#B9C388"></ellipse><ellipse cx="80.33" cy="416.33" rx="35.33" ry="11.33" style="fill:#fff;opacity:0.6000000000000001"></ellipse><path d="M91.74,408.25s11.19,5.91,9.64,7.77-13.86-1.38-14.61-5.9C86.45,408.25,91.74,408.25,91.74,408.25Z" style="fill:#263238;stroke:#263238;stroke-linecap:round;stroke-linejoin:round"></path><path d="M59.72,413.85S69,421,68.11,423.17s-10.26.31-13.37-8.7C54.74,414.47,58.47,414.16,59.72,413.85Z" style="fill:#263238;stroke:#263238;stroke-linecap:round;stroke-linejoin:round"></path><path d="M103.55,282s-.18,29.15-.93,48.19c-.88,22.45-2,42-4.35,51-1.7,6.63-6.53,27.05-6.53,27.05l-5,1.87s.31-50.68.31-55.66-1.56-31.4-1.56-31.4-13.37,59.39-17.41,68.71-8.39,22.08-8.39,22.08l-5,.62s8.09-69.64,7.15-79.9,3-51.37,3-51.37Z" style="fill:#B9C388;stroke:#263238;stroke-linecap:round;stroke-linejoin:round"></path><path d="M58.1,405.35c-.37,2.6-.6,4.15-.6,4.15" style="fill:none;stroke:#263238;stroke-linecap:round;stroke-linejoin:round"></path><path d="M67,300.5S67,337,65.5,351c-1.07,10-4.71,35.7-6.69,49.47" style="fill:none;stroke:#263238;stroke-linecap:round;stroke-linejoin:round"></path><path d="M89,326.42c.49,9.25,1.2,23.82,1.52,34.58.5,17-2,41-2,41" style="fill:none;stroke:#263238;stroke-linecap:round;stroke-linejoin:round"></path><path d="M88.5,317.5s.07,1.23.18,3.32" style="fill:none;stroke:#263238;stroke-linecap:round;stroke-linejoin:round"></path><line x1="85.52" y1="323.06" x2="90.19" y2="308.76" style="fill:#fff;stroke:#263238;stroke-linecap:round;stroke-linejoin:round"></line><path d="M103.86,229.86a31.49,31.49,0,0,1,5.2,9.88c1.73,5.72,8,28.42,6.75,30.84s-4,2.59-6.93,2.43-3.46-10.05-4-13S103.86,229.86,103.86,229.86Z" style="fill:#263238;stroke:#263238;stroke-linecap:round;stroke-linejoin:round"></path><path d="M82.83,217.09s-21.4,10-21.57,14.55,3.68,51.56,3.68,51.56l38.58.35s-.7-48.4-1.4-53.66S88.79,216,82.83,217.09Z" style="fill:#fff;stroke:#263238;stroke-linecap:round;stroke-linejoin:round"></path><path d="M81.42,225.86l4.21,72.42s-5.43-.17-10.17.18-14.38.52-14.38.52-3.33-64.53-2.28-66.46,3.51-3.33,8.6-7.19,13.5-7.72,13.5-7.72Z" style="fill:#263238;stroke:#263238;stroke-linecap:round;stroke-linejoin:round"></path><path d="M104.55,265.21s2.43-2.08,7.8-2.6,6.76,4,6.58,7.28-3.46,5.37-6.23,5.55S104,269.54,104.55,265.21Z" style="fill:#fff;stroke:#263238;stroke-linecap:round;stroke-linejoin:round"></path><path d="M105.42,266.77a15.2,15.2,0,0,1,7.21-1.67c3.53.29,5.09,4.44,3.7,7s-4.67,4.68-7.79,4.16S105.25,269.92,105.42,266.77Z" style="fill:#fff;stroke:#263238;stroke-linecap:round;stroke-linejoin:round"></path><path d="M92.82,225.86l3.69,71.55s3.68-.36,5.61-.36a26.07,26.07,0,0,0,5.43-1.05s-1.57-59.62-1.92-62.78-8.95-10.7-10.7-11.92l-1.76-1.23Z" style="fill:#263238;stroke:#263238;stroke-linecap:round;stroke-linejoin:round"></path><line x1="106.38" y1="264.94" x2="104.91" y2="243.78" style="fill:none;stroke:#fff;stroke-linecap:round;stroke-linejoin:round"></line><path d="M81.78,213.93s-5.09,1.58-6.49,5.09-1.93,13-1.58,16.48.35,8.94.35,8.94,6-2.45,7.72-.35l-.53-19.29s1.4-8.24,6.14-6.66,5.26,9.12,5.26,9.12l1,16.31s1.93-1.76,3.33-1.76h3.69s-1.23-13.15-3.34-18.59S89,211.48,81.78,213.93Z" style="fill:#fff;stroke:#263238;stroke-linecap:round;stroke-linejoin:round"></path><path d="M81.6,207.27a70.5,70.5,0,0,0-.35,9.47c.17,4.91,0,10.17,1.4,13.5s8.6,2.1,9.65-.88,0-14.73,0-14.73A37,37,0,0,0,86.16,208C83,205.51,81.6,207.27,81.6,207.27Z" style="fill:#fff;stroke:#263238;stroke-linecap:round;stroke-linejoin:round"></path><path d="M79,205.69s-6.14-9.12-6.14-14.73c0-3.87,4.22-6.88,7.18-8.61,4.53-2.63,13.68-5.66,17.55-.69,2.45,3.16,5.44,1.05,8.24,5.09s-6.14,6.49-9.12,6.49-12.8,0-11.05,2.28,1.93,3.85.18,4.91S79,205.69,79,205.69Z" style="fill:#263238;stroke:#263238;stroke-linecap:round;stroke-linejoin:round"></path><path d="M80.37,207.44S83,212.7,86,214.63s11.4,2.63,12.28,1.4,1.58-11.75,1.75-15.78-.7-7.19-3-9.29-11.4,0-13.68,2.1,1.76,3.68.88,5.44S80,201,80,202.36,80.37,207.44,80.37,207.44Z" style="fill:#fff;stroke:#263238;stroke-linecap:round;stroke-linejoin:round"></path><polygon points="85.46 197.45 77.04 202.53 78.27 203.93 85.63 202.71 85.46 197.45" style="fill:#fff;stroke:#263238;stroke-linecap:round;stroke-linejoin:round"></polygon><path d="M82.13,204.28s-1.93-3.68-4-3,.18,5.79,1.23,6.84,2.81.35,2.81.35" style="fill:#fff;stroke:#263238;stroke-linecap:round;stroke-linejoin:round"></path><path d="M84.58,199.73s-.88,4.55,3.16,4.73,7.19-2.81,9.82-1.58,5.08.7,6.31-1.23.35-3.68-.35-5.08S87,193.06,84.58,199.73Z" style="fill:#fff;stroke:#263238;stroke-linecap:round;stroke-linejoin:round"></path><path d="M102.46,194.46s-11.32,0-15,1.76a3.63,3.63,0,0,0,.18,6.84c2.74.87,6.4-1.58,9.32-1.58,2.13,0,5.55,1.13,7.47-.25C107.27,199.19,105.21,194.64,102.46,194.46Z" style="fill:#fff;stroke:#263238;stroke-linecap:round;stroke-linejoin:round"></path><polyline points="96.86 203.41 97.56 205.51 95.63 206.39" style="fill:none;stroke:#263238;stroke-linecap:round;stroke-linejoin:round"></polyline><path d="M62.13,229.89s-6.48,2.45-6.48,5.61-5.09,35.95-5.09,35.95,6-1.4,8.42-.7S67,272.68,67,272.68l.18-32.27" style="fill:#263238;stroke:#263238;stroke-linecap:round;stroke-linejoin:round"></path><line x1="65.99" y1="268.12" x2="68.46" y2="245.54" style="fill:none;stroke:#fff;stroke-linecap:round;stroke-linejoin:round"></line><path d="M67.92,275.66s1-5.79-1.93-7.54-12.8-2.11-16.13,0-2.28,10-1,11.22,7.54,1.76,11,1.41S67.22,279.34,67.92,275.66Z" style="fill:#fff;stroke:#263238;stroke-linecap:round;stroke-linejoin:round"></path><polygon points="93 272.5 99.49 265.14 112.63 265.1 105.98 272.85 93 272.5" style="fill:#263238;stroke:#263238;stroke-linecap:round;stroke-linejoin:round"></polygon><polygon points="99.49 265.14 97.03 261.45 90.19 269.87 93 272.5 99.49 265.14" style="fill:#fff;stroke:#263238;stroke-linecap:round;stroke-linejoin:round"></polygon><path d="M82.48,271.28A76.44,76.44,0,0,1,66,272.85c-7.54-.35-12.27-.87-14.55,1.41s.35,7.54,4.21,9.12,22.62-5.44,25.6-5.79,3.51-.53,4.38-.53,3,1.23,6.14,1.05,6.84-4.73,6.84-4.73h.7s2.28-1.4,2.11-1.93l-.18-.53a13.26,13.26,0,0,0-2.28-.17,56.55,56.55,0,0,1-6.84-.88,12.26,12.26,0,0,1-3-.87s4-2.81,4-3.86-.87-1.41-1.75-1.05-1.58.87-4.38,2.27S82.48,271.28,82.48,271.28Z" style="fill:#fff;stroke:#263238;stroke-linecap:round;stroke-linejoin:round"></path><polygon points="97.03 261.45 110.89 261.63 112.63 265.1 99.49 265.14 97.03 261.45" style="fill:#fff;stroke:#263238;stroke-linecap:round;stroke-linejoin:round"></polygon><path d="M112.29,266.89s.7,2.81-.35,4.39-1,3.5-3.16,3.5-7-1.22-6.31-2.28l.7-1.05s.18-.35,1.4-.88-.35-1.57,2.11-2.63A16.63,16.63,0,0,1,112.29,266.89Z" style="fill:#fff;stroke:#263238;stroke-linecap:round;stroke-linejoin:round"></path><path d="M105.59,263.63a.92.92,0,0,1-.7-.32A.93.93,0,0,1,105,262l6.23-4.86a.47.47,0,0,1,.66,0,.46.46,0,0,1,0,.66l-5.61,5.56A.89.89,0,0,1,105.59,263.63Z" style="fill:#263238;stroke:#fff;stroke-miterlimit:10;stroke-width:0.5px"></path></g></svg>